<svg xmlns="http://www.w3.org/2000/svg" xml:space="preserve" viewBox="0 0 92 92"><path d="M72.02 91.04v-4.35c8.164-.011 14.879-6.726 14.89-14.89h4.35c-.011 10.551-8.689 19.229-19.24 19.24Zm14.8-34.86a1.91 1.91 0 0 0-2.67-.26c-.23.19-.49.38-.76.56.07-.24.14-.48.19-.72.7-3.07-.18-5.59-2.49-7.12a6.601 6.601 0 0 0-8.47.77c-2.64 2.41-4.36 7.11-2.53 10.49a5.855 5.855 0 0 0 4.54 3c-2.1 2-4.37 3.51-5.93 3.72-2.87.4-4.75-3-6.55-6.81l-.39-.81a64.77 64.77 0 0 0 6.67-9.77c3.5-6.4 6.79-15.48 2.58-22.38-2.53-4.14-5.28-3.38-6.35-2.85-6 2.93-9.45 24.14-7.16 34.14-2.88 3.23-5.41 5.3-6.39 5.45-.82 0-2.12-1.28-3.39-4a33.657 33.657 0 0 0 3.57-6.14c3.3-7.36 3-13.6-.79-16.29-3.4-2.41-5.66-1.46-6.71-.68-4.45 3.33-3 15.1-.6 22l.17.48c-2.78 3.23-6 5.31-8.82 4.67a7.161 7.161 0 0 1-.8-.23 20.475 20.475 0 0 0 2.44-5c1.29-4 .69-7.31-1.66-9-2-1.41-4.17-1.58-5.92-.47-2.45 1.55-3.68 5.45-3 9.48a11.44 11.44 0 0 0 2.62 5.67 5.065 5.065 0 0 1-3.07 1.54c-1.73 0-2.78-2.66-3.26-4.23-1.89-6.29-5.53-6.22-7-5.9a8.603 8.603 0 0 0-4.88 3.7c-.08-1.19-.16-2.38-.23-3.56a16.693 16.693 0 0 0 4.74-4.67 19.482 19.482 0 0 0 3.37-11.7c-.28-4.7-2.75-7.69-6.31-7.69h-.22a4.462 4.462 0 0 0-3.22 1.53c-2.61 2.89-2.85 9.72-2.28 20.31-1.153.48-2.375.777-3.62.88a1.91 1.91 0 0 0-1.737 1.895A1.912 1.912 0 0 0 2.57 58.08c1.199-.1 2.383-.335 3.53-.7.113 1.8.24 3.69.38 5.67.14 2 .29 4.05.42 6.11-.002.669.042 1.337.13 2a1.906 1.906 0 0 0 1.88 1.64h.19a1.909 1.909 0 0 0 1.71-2c-.033-.587-.07-1.177-.11-1.77.05-4.71 2.89-9.37 5-9.83 1.34-.28 2.22 2.2 2.55 3.28 1.72 5.7 4.68 6.92 6.86 6.94a9.155 9.155 0 0 0 6.09-3c.778.393 1.6.688 2.45.88 3.89.89 7.93-1.17 11.35-4.62 1.76 3.15 3.89 4.78 6.16 4.71 1.94 0 4.83-2.19 7.82-5.31 1.76 3.68 4.65 9 10.19 8.3 3.42-.47 8-4 11.05-8.13a25.23 25.23 0 0 0 6.3-3.4c.815-.65.95-1.855.3-2.67ZM10.93 35.65a.682.682 0 0 1 .53-.27h.07c2.12 0 2.48 3.15 2.53 4.12A15.448 15.448 0 0 1 9.5 51c-.3-7.34-.16-13.6 1.43-15.35ZM32.55 57.2a16.748 16.748 0 0 1-1.85 3.89 8.19 8.19 0 0 1-1.35-3.33c-.45-2.6.3-5 1.28-5.62a.794.794 0 0 1 .46-.14 1.76 1.76 0 0 1 1.28.46c.76.67.9 2.5.18 4.75v-.01Zm16.27-16.37c1.22 2.12 1.38 5.67-1 11a30.074 30.074 0 0 1-1.69 3.22c-1.91-6.93-1.67-14.2-.06-15.59.99-.84 2.44.84 2.75 1.38v-.01Zm19.06-12c2.73 4.74.74 11.25-1.43 15.93a54.42 54.42 0 0 1-5.73 9.47c-.72-8 1.13-20.87 4.51-25.61 1.34-1.91 2.07-.84 2.65.18v.03Zm12 26.12A12.614 12.614 0 0 1 77.97 59c-1.46.29-3.79.51-4.53-.87-.74-1.38.06-4.33 1.75-5.88a3.177 3.177 0 0 1 2.14-1 2.996 2.996 0 0 1 1.67.55c.64.44 1.32 1.17.88 3.12v.03Z"/><path d="m43.91 28.47 4.92-10.76L40.23.47h5.12l5.76 12.24L56.71.47h4.6l-12.8 28h-4.6ZM29.63 0c5.64 0 8.36 2.68 8.36 7.8v12.68h-4.32v-2.76a7.287 7.287 0 0 1-6.36 3.16c-4.16 0-6.76-2.6-6.76-6.2s2.72-5.88 6.4-6.2l5.56-.56c.84-.08 1.16-.36 1.16-.92v-.44c0-1.56-1.32-2.64-4-2.64-2.44 0-4.48.88-5.08 3.08l-3.48-2.2C22.15 1.84 24.99 0 29.63 0Zm4 11.24-5.76.72c-2 .24-2.88 1.28-2.88 2.6 0 1.52 1.12 2.56 3.28 2.56 3.32 0 5.36-2.36 5.36-4.72v-1.16ZM9 0c3.84 0 6.32 1.44 8 3.64l-2.92 2.8A6.136 6.136 0 0 0 8.8 3.96c-2 0-3.28.72-3.28 2 0 1.48 1.6 1.84 4.72 2.52 3.4.76 6.8 1.76 6.8 6.16S13.72 21 8.92 21c-3.8 0-7.2-1.24-8.88-4l3-2.84c1.24 2.08 3.6 3 6.2 3 2 0 3.44-.64 3.44-2.16s-1.44-1.92-4.44-2.56c-3-.64-7.08-1.8-7.08-6.2C1.08 2.4 4.04 0 9 0Z"/></svg>