<?xml version="1.0" encoding="UTF-8"?> <svg xmlns="http://www.w3.org/2000/svg" xml:space="preserve" viewBox="0 0 92 92"><path d="M72.02 91.04v-4.35c8.164-.011 14.879-6.726 14.89-14.89h4.35c-.011 10.551-8.689 19.229-19.24 19.24Zm14.8-34.86c-.662-.802-1.866-.919-2.67-.26-.23.19-.49.38-.76.56.07-.24.14-.48.19-.72.7-3.07-.18-5.59-2.49-7.12-2.621-1.84-6.224-1.512-8.47.77-2.64 2.41-4.36 7.11-2.53 10.49.927 1.684 2.627 2.808 4.54 3-2.1 2-4.37 3.51-5.93 3.72-2.87.4-4.75-3-6.55-6.81l-.39-.81a64.7697 64.7697 0 0 0 6.67-9.77c3.5-6.4 6.79-15.48 2.58-22.38-2.53-4.14-5.28-3.38-6.35-2.85-6 2.93-9.45 24.14-7.16 34.14-2.88 3.23-5.41 5.3-6.39 5.45-.82 0-2.12-1.28-3.39-4a33.657 33.657 0 0 0 3.57-6.14c3.3-7.36 3-13.6-.79-16.29-3.4-2.41-5.66-1.46-6.71-.68-4.45 3.33-3 15.1-.6 22l.17.48c-2.78 3.23-6 5.31-8.82 4.67a7.1612 7.1612 0 0 1-.8-.23 20.4751 20.4751 0 0 0 2.44-5c1.29-4 .69-7.31-1.66-9-2-1.41-4.17-1.58-5.92-.47-2.45 1.55-3.68 5.45-3 9.48.33 2.096 1.238 4.06 2.62 5.67-.812.855-1.899 1.4-3.07 1.54-1.73 0-2.78-2.66-3.26-4.23-1.89-6.29-5.53-6.22-7-5.9a8.6026 8.6026 0 0 0-4.88 3.7c-.08-1.19-.16-2.38-.23-3.56a16.6929 16.6929 0 0 0 4.74-4.67 19.482 19.482 0 0 0 3.37-11.7c-.28-4.7-2.75-7.69-6.31-7.69h-.22c-1.239.04-2.406.595-3.22 1.53-2.61 2.89-2.85 9.72-2.28 20.31-1.153.48-2.375.777-3.62.88-.978.085-1.737.914-1.737 1.895 0 1.043.859 1.902 1.902 1.902.055 0 .11-.002.165-.007 1.199-.1 2.383-.335 3.53-.7.113 1.8.24 3.69.38 5.67.14 2 .29 4.05.42 6.11-.002.669.042 1.337.13 2 .129.935.936 1.639 1.88 1.64h.19c1.008-.1 1.768-.989 1.71-2-.033-.587-.07-1.177-.11-1.77.05-4.71 2.89-9.37 5-9.83 1.34-.28 2.22 2.2 2.55 3.28 1.72 5.7 4.68 6.92 6.86 6.94a9.1547 9.1547 0 0 0 6.09-3c.778.393 1.6.688 2.45.88 3.89.89 7.93-1.17 11.35-4.62 1.76 3.15 3.89 4.78 6.16 4.71 1.94 0 4.83-2.19 7.82-5.31 1.76 3.68 4.65 9 10.19 8.3 3.42-.47 8-4 11.05-8.13a25.2303 25.2303 0 0 0 6.3-3.4c.815-.65.95-1.855.3-2.67ZM10.93 35.65a.682.682 0 0 1 .53-.27h.07c2.12 0 2.48 3.15 2.53 4.12A15.448 15.448 0 0 1 9.5 51c-.3-7.34-.16-13.6 1.43-15.35ZM32.55 57.2a16.7485 16.7485 0 0 1-1.85 3.89 8.1892 8.1892 0 0 1-1.35-3.33c-.45-2.6.3-5 1.28-5.62a.7945.7945 0 0 1 .46-.14c.471-.024.932.141 1.28.46.76.67.9 2.5.18 4.75v-.01Zm16.27-16.37c1.22 2.12 1.38 5.67-1 11a30.0742 30.0742 0 0 1-1.69 3.22c-1.91-6.93-1.67-14.2-.06-15.59.99-.84 2.44.84 2.75 1.38v-.01Zm19.06-12c2.73 4.74.74 11.25-1.43 15.93a54.4203 54.4203 0 0 1-5.73 9.47c-.72-8 1.13-20.87 4.51-25.61 1.34-1.91 2.07-.84 2.65.18v.03Zm12 26.12A12.6136 12.6136 0 0 1 77.97 59c-1.46.29-3.79.51-4.53-.87-.74-1.38.06-4.33 1.75-5.88a3.1774 3.1774 0 0 1 2.14-1c.599.012 1.181.204 1.67.55.64.44 1.32 1.17.88 3.12v.03Z"></path><path d="m43.91 28.47 4.92-10.76L40.23.47h5.12l5.76 12.24L56.71.47h4.6l-12.8 28h-4.6ZM29.63 0c5.64 0 8.36 2.68 8.36 7.8v12.68h-4.32v-2.76c-1.426 2.084-3.838 3.282-6.36 3.16-4.16 0-6.76-2.6-6.76-6.2s2.72-5.88 6.4-6.2l5.56-.56c.84-.08 1.16-.36 1.16-.92v-.44c0-1.56-1.32-2.64-4-2.64-2.44 0-4.48.88-5.08 3.08l-3.48-2.2C22.15 1.84 24.99 0 29.63 0Zm4 11.24-5.76.72c-2 .24-2.88 1.28-2.88 2.6 0 1.52 1.12 2.56 3.28 2.56 3.32 0 5.36-2.36 5.36-4.72v-1.16ZM9 0c3.84 0 6.32 1.44 8 3.64l-2.92 2.8c-1.227-1.663-3.216-2.597-5.28-2.48-2 0-3.28.72-3.28 2 0 1.48 1.6 1.84 4.72 2.52 3.4.76 6.8 1.76 6.8 6.16S13.72 21 8.92 21c-3.8 0-7.2-1.24-8.88-4l3-2.84c1.24 2.08 3.6 3 6.2 3 2 0 3.44-.64 3.44-2.16s-1.44-1.92-4.44-2.56c-3-.64-7.08-1.8-7.08-6.2C1.08 2.4 4.04 0 9 0Z"></path></svg> 